<?xml version="1.0" encoding="utf-8"?>
<!-- Generator: Adobe Illustrator 27.5.0, SVG Export Plug-In . SVG Version: 6.00 Build 0)  -->
<svg version="1.1" xmlns="http://www.w3.org/2000/svg" xmlns:xlink="http://www.w3.org/1999/xlink" x="0px" y="0px"
	 viewBox="0 0 500 500" style="enable-background:new 0 0 500 500;" xml:space="preserve">
<g id="BACKGROUND">
	<rect id="XMLID_2_" y="0" style="fill:#1D71B8;" width="500" height="500"/>
</g>
<g id="OBJECTS">
	<g id="XMLID_154_">
		
			<linearGradient id="XMLID_00000112599155997129937450000003136836873170334358_" gradientUnits="userSpaceOnUse" x1="248.9669" y1="94.0474" x2="248.9669" y2="255.0106">
			<stop  offset="0" style="stop-color:#FFFFFF"/>
			<stop  offset="1" style="stop-color:#FFFFFF;stop-opacity:0"/>
		</linearGradient>
		
			<rect id="XMLID_149_" x="91.594" y="94.047" style="opacity:0.27;fill:url(#XMLID_00000112599155997129937450000003136836873170334358_);" width="314.747" height="160.963"/>
		<g id="XMLID_5_" style="opacity:0.21;">
			<path id="XMLID_70_" style="fill:#FFFFFF;" d="M186.813,256.065l-74.623-0.116c-1.994-0.003-3.623-1.637-3.619-3.631
				l0.216-138.899c0.003-1.994,1.637-3.623,3.631-3.619l74.622,0.117c1.994,0.003,3.623,1.637,3.619,3.631l-0.217,138.899
				C190.44,254.44,188.807,256.069,186.813,256.065z"/>
			
				<rect id="XMLID_57_" x="114.931" y="119.362" transform="matrix(1 0.0016 -0.0016 1 0.1906 -0.2313)" style="fill:#DADADA;" width="67.204" height="5.761"/>
			
				<rect id="XMLID_21_" x="114.914" y="130.116" transform="matrix(1 0.0016 -0.0016 1 0.2076 -0.2314)" style="fill:#DADADA;" width="67.204" height="5.761"/>
			
				<rect id="XMLID_20_" x="114.898" y="140.84" transform="matrix(1 0.0016 -0.0016 1 0.2242 -0.2011)" style="fill:#DADADA;" width="28.485" height="5.761"/>
			
				<rect id="XMLID_8_" x="114.881" y="151.624" transform="matrix(1 0.0016 -0.0016 1 0.2411 -0.2314)" style="fill:#DADADA;" width="67.204" height="5.761"/>
			
				<rect id="XMLID_7_" x="114.864" y="162.378" transform="matrix(1 0.0016 -0.0016 1 0.2579 -0.2313)" style="fill:#DADADA;" width="67.204" height="5.761"/>
			
				<rect id="XMLID_72_" x="114.864" y="180.052" transform="matrix(1 0.0016 -0.0016 1 0.2855 -0.2313)" style="fill:#DADADA;" width="67.204" height="5.761"/>
			
				<rect id="XMLID_73_" x="114.864" y="191.05" transform="matrix(1 0.0016 -0.0016 1 0.3026 -0.2313)" style="fill:#DADADA;" width="67.204" height="5.761"/>
			
				<rect id="XMLID_74_" x="114.864" y="202.047" transform="matrix(1 0.0016 -0.0016 1 0.3198 -0.2313)" style="fill:#DADADA;" width="67.204" height="5.761"/>
			
				<rect id="XMLID_75_" x="114.864" y="213.045" transform="matrix(1 0.0016 -0.0016 1 0.3369 -0.2313)" style="fill:#DADADA;" width="67.204" height="5.761"/>
			
				<rect id="XMLID_77_" x="114.864" y="224.042" transform="matrix(1 0.0016 -0.0016 1 0.3541 -0.2312)" style="fill:#DADADA;" width="67.204" height="5.761"/>
			
				<rect id="XMLID_78_" x="114.864" y="235.04" transform="matrix(1 0.0016 -0.0016 1 0.3712 -0.2312)" style="fill:#DADADA;" width="67.204" height="5.761"/>
		</g>
		<g id="XMLID_66_" style="opacity:0.21;">
			<path id="XMLID_158_" style="fill:#FFFFFF;" d="M383.279,214.327l-74.623-0.116c-1.994-0.003-3.622-1.637-3.619-3.631
				l0.152-97.16c0.003-1.994,1.637-3.623,3.631-3.619l74.622,0.116c1.994,0.003,3.622,1.637,3.619,3.631l-0.152,97.16
				C386.906,212.702,385.273,214.33,383.279,214.327z"/>
			
				<rect id="XMLID_157_" x="311.332" y="119.362" transform="matrix(1 0.0016 -0.0016 1 0.1909 -0.5372)" style="fill:#DADADA;" width="67.204" height="5.761"/>
			
				<rect id="XMLID_156_" x="311.315" y="130.116" transform="matrix(1 0.0016 -0.0016 1 0.2078 -0.5377)" style="fill:#DADADA;" width="67.204" height="5.761"/>
			
				<rect id="XMLID_122_" x="311.299" y="140.84" transform="matrix(1 0.0016 -0.0016 1 0.2244 -0.5073)" style="fill:#DADADA;" width="28.485" height="5.761"/>
			
				<rect id="XMLID_112_" x="311.282" y="151.624" transform="matrix(1 0.0016 -0.0016 1 0.2414 -0.5376)" style="fill:#DADADA;" width="67.204" height="5.761"/>
			
				<rect id="XMLID_111_" x="311.265" y="162.378" transform="matrix(1 0.0016 -0.0016 1 0.2581 -0.5376)" style="fill:#DADADA;" width="67.204" height="5.761"/>
			
				<rect id="XMLID_110_" x="311.265" y="180.052" transform="matrix(1 0.0016 -0.0016 1 0.2857 -0.5376)" style="fill:#DADADA;" width="67.204" height="5.761"/>
			
				<rect id="XMLID_109_" x="311.265" y="191.05" transform="matrix(1 0.0016 -0.0016 1 0.3028 -0.5376)" style="fill:#DADADA;" width="67.204" height="5.761"/>
			
				<rect id="XMLID_108_" x="311.265" y="202.047" transform="matrix(1 0.0016 -0.0016 1 0.32 -0.5375)" style="fill:#DADADA;" width="67.204" height="5.761"/>
		</g>
		<path id="XMLID_259_" style="opacity:0.37;fill:#1D71B8;" d="M468.316,401.574c0,6.907-99.393,12.507-222,12.507
			s-222-5.6-222-12.507c0-6.907,99.393-12.507,222-12.507S468.316,394.667,468.316,401.574z"/>
		
			<text id="XMLID_231_" transform="matrix(1 0 0 1 43.497 397.6446)" style="fill:#FFFFFF; font-family:'Baloo'; font-size:87.1486px;">BLOGGING</text>
		
			<ellipse id="XMLID_153_" transform="matrix(0.7586 -0.6516 0.6516 0.7586 -113.2675 198.0663)" style="fill:#FFFFFF;" cx="210.639" cy="251.878" rx="9.319" ry="9.319"/>
		<g id="XMLID_133_">
			<g id="XMLID_36_">
				<path id="XMLID_16_" style="fill:#1E223F;" d="M195.188,301.746c-4.849,0.732-17.051,8.264-28.753,14.586
					c-0.025-0.017-3.637,11.389-2.141,3.716l-0.9-0.205c-0.68,2.287,0.113-3.282-0.421-0.952c-1.107,4.832-2.043,9.624-3.509,14.366
					c-1.115,3.607-1.749,7.232-2.178,10.874c0.837-0.256,1.655-0.542,2.447-0.863c0.001,0.001,0.003,0.002,0.004,0.003
					c7.76-2.964,18.28-7.739,23.137-13.193c0,0,3.83,14.277,3.61,18.967c-0.09,1.925-0.207,4.685-0.313,7.277
					c2.12,0.505,4.171,1.286,6.235,2.039c2.988-8.486,11.295-32.877,11.646-42.776C204.48,303.505,200.21,300.987,195.188,301.746z"
					/>
				<g id="XMLID_25_">
					<path id="XMLID_33_" style="fill:#FF9C92;" d="M183.853,312.195l17.407-2.391c0.025-0.729-0.46-1.378-1.167-1.559l-7.965-2.041
						c-0.313-0.08-0.644-0.061-0.945,0.056l-4.607,1.78l-0.259,0.83C187.019,309.67,183.76,311.122,183.853,312.195z"/>
					<polygon id="XMLID_29_" style="fill:#FF9C92;" points="142.437,274.448 142.437,285.297 156.657,283.091 156.917,275.591 					
						"/>
					<path id="XMLID_27_" style="fill:#FF9C92;" d="M184.143,312.093l3.109-3.49l-34.031-28.378l-0.009,0.011
						c-2.721-2.233-6.741-1.945-9.104,0.708c-2.424,2.721-2.183,6.892,0.538,9.315c0.159,0.142,0.324,0.272,0.492,0.396l0,0
						l0.343,0.228c0.244,0.156,0.493,0.299,0.75,0.42l37.316,20.891C183.745,312.304,183.992,312.262,184.143,312.093z"/>
				</g>
				<path id="XMLID_15_" style="fill:#3E1156;" d="M137.956,320.334c0,0-5.71-1.903-11.112-0.307c-5.403,1.596,1.78,8.656,7.49,7.92
					C140.044,327.21,137.956,320.334,137.956,320.334z"/>
				<g id="XMLID_6_">
					<path id="XMLID_12_" style="fill:#FFFFFF;" d="M186.266,355.59l-1.173,4.754c0.022,1.27,2.386,3.777,3.652,3.685l2.043-0.148
						l0.047-9.735L186.266,355.59z"/>
					<path id="XMLID_10_" d="M185.092,360.345c0,0-3.563,2.298-3.3,5.317c0.262,3.02,20.028,6.638,20.028,6.638
						s0.827-0.229-0.259-1.113l-7.978-5.919c0,0-3.181-3.147-5.225-3.405C186.653,361.646,185.092,360.345,185.092,360.345z"/>
				</g>
				
					<ellipse id="XMLID_320_" transform="matrix(0.6851 -0.7284 0.7284 0.6851 -132.089 177.7317)" style="fill:#1D1D1B;" cx="139.542" cy="241.656" rx="9.128" ry="9.128"/>
				<circle id="XMLID_42_" style="fill:#1D1D1B;" cx="147.342" cy="250.785" r="9.128"/>
				<path id="XMLID_37_" style="fill:#1D1D1B;" d="M150.704,230.226c0,5.041-4.087,9.128-9.128,9.128
					c-5.041,0-9.128-4.087-9.128-9.128c0-5.041,4.087-9.128,9.128-9.128C146.617,221.098,150.704,225.184,150.704,230.226z"/>
				<circle id="XMLID_38_" style="fill:#1D1D1B;" cx="151.569" cy="223.4" r="9.128"/>
				<path id="XMLID_39_" style="fill:#1D1D1B;" d="M169.825,221.098c0,5.041-4.087,9.128-9.128,9.128
					c-5.041,0-9.128-4.087-9.128-9.128c0-5.041,4.087-9.128,9.128-9.128C165.738,211.969,169.825,216.056,169.825,221.098z"/>
				<path id="XMLID_40_" style="fill:#1D1D1B;" d="M180.938,230.226c0,5.041-4.087,9.128-9.128,9.128
					c-5.041,0-9.128-4.087-9.128-9.128c0-5.041,4.087-9.128,9.128-9.128C176.851,221.098,180.938,225.184,180.938,230.226z"/>
				<path id="XMLID_41_" style="fill:#1D1D1B;" d="M165.598,233.242c0,5.041-4.087,9.128-9.128,9.128
					c-5.041,0-9.128-4.087-9.128-9.128c0-5.041,4.087-9.128,9.128-9.128C161.511,224.114,165.598,228.201,165.598,233.242z"/>
				<g id="XMLID_1_">
					<path id="XMLID_182_" style="fill:#FFFFFF;" d="M189.055,360.109l-2.22,4.365c-0.266,1.241,1.468,4.219,2.723,4.417
						l2.023,0.319l2.251-9.471L189.055,360.109z"/>
					<path id="XMLID_177_" d="M186.835,364.474c0,0-3.991,1.431-4.419,4.432c-0.429,3,18.003,11.002,18.003,11.002
						s0.857-0.036,0-1.143l-6.43-7.573c0,0-2.385-3.786-4.318-4.501C188.06,366.095,186.835,364.474,186.835,364.474z"/>
				</g>
				<path id="XMLID_241_" style="fill:#FFBBB0;" d="M146.053,250.237c-2.557-0.044-4.595-2.152-4.552-4.71
					c0.044-2.557,2.535-4.607,5.093-4.564"/>
				<path id="XMLID_9_" style="fill:#292B51;" d="M207.568,310.927c-5.148-0.207-18.046,0.101-31.38,4.073
					c-0.023-0.022-0.042-0.046-0.065-0.067l-42.772,5.295c-0.705,1.743-1.431,4.525-1.431,6.444
					c0,10.379,11.114,18.793,24.824,18.793c2.048,0,4.036-0.191,5.939-0.545c0.001,0.001,0.002,0.002,0.003,0.003
					c8.596-1.428,20.402-4.108,26.504-8.535c0,0,1.087,14.746-0.081,19.308c-0.479,1.872-1.153,4.56-1.782,7.084
					c2.084,0.9,4.044,2.059,6.021,3.191c4.783-7.76,18.239-30.117,20.586-39.767C216.798,314.427,212.899,311.14,207.568,310.927z"
					/>
				<path id="XMLID_3_" style="fill:#662483;" d="M125.614,324.091c0,0,1.112-5.627,13.253-3.304
					c12.141,2.324,26.409-0.085,32.337-5.246c0,0,3.742-16.186-6.799-28.523c-2.343-2.743-3.394-6.247-2.877-9.683l0.193-1.282
					c0.63-4.184-0.876-8.441-4.068-11.502l-7.629-7.316C150.025,257.235,108.235,287.701,125.614,324.091z"/>
				<g id="XMLID_14_">
					<g id="XMLID_50_">
						<line id="XMLID_17_" style="fill:#FFFFFF;" x1="222.742" y1="272.044" x2="209.444" y2="307.97"/>
						<path id="XMLID_18_" style="fill:#DADADA;" d="M209.545,308.699c-0.117,0.016-0.239,0.005-0.358-0.039
							c-0.382-0.141-0.576-0.565-0.435-0.947l13.299-35.925c0.143-0.381,0.566-0.578,0.947-0.435
							c0.382,0.141,0.576,0.564,0.435,0.947l-13.299,35.925C210.037,308.489,209.805,308.663,209.545,308.699z"/>
					</g>
					<g id="XMLID_44_">
						<path id="XMLID_32_" style="fill:#B2B2B2;" d="M175.309,313.475l34.495-4.827c0.357-0.05,0.691,0.202,0.741,0.559l0.086,0.613
							c0.05,0.358-0.201,0.691-0.559,0.741l-34.495,4.827c-0.357,0.05-0.691-0.202-0.741-0.559l-0.086-0.613
							C174.7,313.858,174.952,313.525,175.309,313.475z"/>
					</g>
					<g id="XMLID_52_">
						
							<rect id="XMLID_30_" x="206.112" y="309.539" transform="matrix(0.9904 -0.1386 0.1386 0.9904 -40.9505 31.7374)" style="fill:#706F6F;" width="2.667" height="0.828"/>
					</g>
					<g id="XMLID_56_">
						
							<rect id="XMLID_28_" x="202.287" y="310.075" transform="matrix(0.9904 -0.1386 0.1386 0.9904 -41.0616 31.2125)" style="fill:#706F6F;" width="2.667" height="0.828"/>
					</g>
					<g id="XMLID_60_">
						
							<rect id="XMLID_26_" x="179.789" y="313.222" transform="matrix(0.9904 -0.1386 0.1386 0.9904 -41.7149 28.1253)" style="fill:#706F6F;" width="2.667" height="0.828"/>
					</g>
					<g id="XMLID_54_">
						<path id="XMLID_24_" style="fill:#706F6F;" d="M176.387,314.299c0.032,0.226-0.126,0.435-0.352,0.467
							c-0.226,0.032-0.436-0.126-0.467-0.353c-0.032-0.226,0.126-0.435,0.353-0.467
							C176.146,313.915,176.355,314.073,176.387,314.299z"/>
					</g>
					<g id="XMLID_59_">
						<path id="XMLID_22_" style="fill:#706F6F;" d="M178.482,314.006c0.032,0.226-0.126,0.436-0.353,0.467
							c-0.226,0.032-0.436-0.126-0.467-0.353c-0.032-0.226,0.126-0.436,0.352-0.467C178.241,313.622,178.45,313.78,178.482,314.006z
							"/>
					</g>
				</g>
				<g id="XMLID_19_">
					<path id="XMLID_31_" style="fill:#FFBBB0;" d="M179.745,312.854l17.407-2.391c0.026-0.729-0.46-1.378-1.167-1.559l-7.965-2.041
						c-0.313-0.08-0.644-0.061-0.945,0.056l-4.607,1.78l-0.259,0.83C182.911,310.329,179.652,311.781,179.745,312.854z"/>
					<polygon id="XMLID_244_" style="fill:#FFBBB0;" points="138.329,275.107 138.329,285.956 152.549,283.75 152.809,276.251 					
						"/>
					<path id="XMLID_53_" style="fill:#FFBBB0;" d="M180.035,312.752l3.109-3.49l-34.031-28.378l-0.008,0.011
						c-2.722-2.233-6.741-1.945-9.104,0.708c-2.424,2.721-2.183,6.892,0.538,9.315c0.159,0.142,0.324,0.272,0.492,0.396l0,0
						l0.343,0.228c0.244,0.156,0.493,0.299,0.75,0.42l37.317,20.891C179.637,312.963,179.884,312.921,180.035,312.752z"/>
				</g>
				<path id="XMLID_62_" style="fill:#FFBBB0;" d="M147.348,232.073l-3,31.668c0.896,0.275,1.788,0.575,2.694,0.819
					c1.163,0.314,2.346,0.64,3.478,1.052c0.465,0.169,0.984,0.344,1.461,0.564c0.478-0.399,1.056-0.706,1.737-0.877
					c0.558-0.228,1.196-0.362,1.92-0.362c0.032,0,0.06,0.004,0.092,0.004l-0.064-2.619l8.711-3.076
					c3.417-1.207,5.741-4.389,5.851-8.012l0.565-18.739L147.348,232.073z"/>
				<path id="XMLID_23_" style="fill:#FFFFFF;" d="M141.938,264.303c0.206-0.202,2.832-5.021,2.832-5.021l10.156,5.669l-0.577,4.29
					c-0.061,0.456-0.55,0.721-0.965,0.522L141.938,264.303z"/>
				<path id="XMLID_35_" style="fill:#FFFFFF;" d="M154.927,264.951l0.785-3.246l1.941,2.846v1.599c0,0.616-0.755,0.914-1.176,0.463
					L154.927,264.951L154.927,264.951z"/>
				<path id="XMLID_34_" style="fill:#662483;" d="M153.202,282.409h-16.863v-6.173c0-4.657,3.775-8.431,8.431-8.431l0,0
					c4.657,0,8.431,3.775,8.431,8.431V282.409z"/>
				<path id="XMLID_43_" style="fill:#1D1D1B;" d="M155.439,232.528c0,5.041-4.087,9.128-9.128,9.128
					c-5.041,0-9.128-4.087-9.128-9.128c0-5.041,4.087-9.128,9.128-9.128C151.352,223.4,155.439,227.487,155.439,232.528z"/>
				
					<ellipse id="XMLID_45_" transform="matrix(0.7071 -0.7071 0.7071 0.7071 -113.8383 177.8431)" style="fill:#1D1D1B;" cx="157.756" cy="226.337" rx="9.128" ry="9.128"/>
				<path id="XMLID_46_" style="fill:#1D1D1B;" d="M179.744,227.13c0,5.041-4.087,9.128-9.128,9.128
					c-5.041,0-9.128-4.087-9.128-9.128c0-5.041,4.087-9.128,9.128-9.128C175.657,218.002,179.744,222.089,179.744,227.13z"/>
				<path id="XMLID_248_" style="fill:#1D1D1B;" d="M162.254,241.879c0.012,1.053-0.509,1.913-1.164,1.92
					c-0.655,0.007-1.195-0.84-1.207-1.894c-0.012-1.053,0.509-1.913,1.164-1.92C161.702,239.978,162.242,240.826,162.254,241.879z"
					/>
				<path id="XMLID_47_" style="fill:#1D1D1B;" d="M168.722,241.643c0.012,1.053-0.509,1.913-1.164,1.92
					c-0.655,0.007-1.195-0.84-1.207-1.894c-0.012-1.053,0.509-1.913,1.164-1.92C168.17,239.742,168.71,240.59,168.722,241.643z"/>
				<path id="XMLID_123_" style="fill:none;stroke:#1D1D1B;stroke-miterlimit:10;" d="M163.171,241.103
					c0,3.114-1.868,5.638-4.173,5.638s-4.173-2.524-4.173-5.638s1.868-5.638,4.173-5.638S163.171,237.989,163.171,241.103z"/>
				<path id="XMLID_48_" style="fill:none;stroke:#1D1D1B;stroke-miterlimit:10;" d="M173.892,241.103
					c0,3.114-1.821,5.638-4.067,5.638c-2.246,0-4.068-2.524-4.068-5.638s1.821-5.638,4.068-5.638
					C172.071,235.465,173.892,237.989,173.892,241.103z"/>
				<polygon id="XMLID_247_" style="fill:#FF6252;" points="164.487,237.554 170.792,247.595 164.282,248.556 				"/>
				
					<line id="XMLID_49_" style="fill:none;stroke:#1D1D1B;stroke-miterlimit:10;" x1="162.254" y1="237.582" x2="166.885" y2="237.214"/>
				
					<line id="XMLID_51_" style="fill:none;stroke:#1D1D1B;stroke-miterlimit:10;" x1="146.311" y1="239.354" x2="155.031" y2="239.354"/>
				<g id="XMLID_337_">
					<g id="XMLID_341_">
						<path id="XMLID_343_" style="fill:#CE3E3E;" d="M164.487,251.661c0,0,1.339-0.702,2.458-0.661s2.187,0.494,2.35,1.911
							c0.163,1.417-1.266,2.399-2.984,3.183c-1.013,0.462-4.39,0.887-6.167-0.071c-1.777-0.958-2.697-1.697-3.042-2.944
							c-0.344-1.247,0.688-2.452,1.673-2.765c0.986-0.312,1.965,0.21,2.415,0.603C161.639,251.31,162.738,252.265,164.487,251.661z"
							/>
					</g>
					<g id="XMLID_339_">
						<path id="XMLID_340_" style="fill:#FF7D7D;" d="M168.066,255.11c0,0-1.293-0.905-3.436-0.711
							c-2.144,0.194-2.998,0.998-3.958,1.855c0,0,2.363,0.78,4.697,0.163C167.262,255.916,168.066,255.11,168.066,255.11z"/>
					</g>
				</g>
			</g>
			<g id="XMLID_61_">
				<circle id="XMLID_55_" style="fill:#B17F4A;" cx="326.925" cy="233.94" r="11.717"/>
				<path id="XMLID_121_" style="fill:#1E223F;" d="M297.445,301.963c4.85,0.732,17.051,8.264,28.753,14.586
					c0.025-0.017,3.637,11.389,2.141,3.716l0.9-0.205c0.681,2.287-0.113-3.282,0.421-0.952c1.107,4.832,2.043,9.624,3.509,14.366
					c1.115,3.607,1.749,7.232,2.178,10.874c-0.837-0.256-1.655-0.542-2.447-0.863c-0.001,0.001-0.003,0.002-0.004,0.003
					c-7.76-2.964-18.28-7.739-23.137-13.193c0,0-3.83,14.277-3.61,18.967c0.09,1.925,0.207,4.685,0.313,7.277
					c-2.12,0.505-4.171,1.286-6.235,2.039c-2.988-8.486-11.295-32.877-11.646-42.776
					C288.152,303.723,292.423,301.205,297.445,301.963z"/>
				<g id="XMLID_113_">
					<path id="XMLID_115_" style="fill:#FFFFFF;" d="M306.367,355.808l1.173,4.754c-0.022,1.27-2.386,3.777-3.652,3.685
						l-2.043-0.148l-0.047-9.735L306.367,355.808z"/>
					<path id="XMLID_114_" d="M307.54,360.562c0,0,3.563,2.298,3.3,5.317c-0.262,3.02-20.027,6.638-20.027,6.638
						s-0.827-0.229,0.259-1.113l7.978-5.919c0,0,3.181-3.147,5.225-3.405C305.98,361.864,307.54,360.562,307.54,360.562z"/>
				</g>
				<g id="XMLID_117_">
					<path id="XMLID_120_" style="fill:#936037;" d="M308.78,312.412l-17.407-2.391c-0.026-0.729,0.46-1.378,1.167-1.559
						l7.965-2.041c0.313-0.08,0.644-0.061,0.945,0.056l4.607,1.78l0.259,0.83C305.614,309.888,308.873,311.34,308.78,312.412z"/>
					<polygon id="XMLID_119_" style="fill:#FF9C92;" points="350.196,274.665 350.196,285.514 335.976,283.308 335.715,275.809 
											"/>
					<path id="XMLID_118_" style="fill:#936037;" d="M308.49,312.311l-3.109-3.49l34.031-28.378l0.008,0.011
						c2.722-2.233,6.741-1.945,9.104,0.708c2.424,2.721,2.183,6.892-0.538,9.315c-0.159,0.142-0.324,0.272-0.492,0.396l0,0
						l-0.343,0.228c-0.244,0.156-0.493,0.299-0.75,0.42l-37.316,20.891C308.888,312.521,308.64,312.48,308.49,312.311z"/>
				</g>
				<path id="XMLID_116_" style="fill:#DADADA;" d="M354.676,320.551c0,0,5.71-1.903,11.112-0.307c5.403,1.596-1.78,8.656-7.49,7.92
					C352.589,327.427,354.676,320.551,354.676,320.551z"/>
				<g id="XMLID_103_">
					<path id="XMLID_105_" style="fill:#FFFFFF;" d="M303.578,360.327l2.22,4.365c0.266,1.241-1.468,4.219-2.723,4.417l-2.023,0.319
						l-2.251-9.471L303.578,360.327z"/>
					<path id="XMLID_104_" d="M305.798,364.691c0,0,3.99,1.431,4.419,4.431c0.429,3-18.003,11.002-18.003,11.002
						s-0.858-0.036,0-1.143l6.43-7.573c0,0,2.385-3.786,4.318-4.501C304.573,366.313,305.798,364.691,305.798,364.691z"/>
				</g>
				<path id="XMLID_102_" style="fill:#B17F4A;" d="M342.049,249.129c2.53-0.377,4.275-2.733,3.899-5.263
					c-0.377-2.53-3.114-4.238-5.644-3.861"/>
				<path id="XMLID_101_" style="fill:#292B51;" d="M285.065,311.144c5.148-0.207,18.046,0.101,31.38,4.073
					c0.023-0.022,0.042-0.046,0.065-0.067l42.772,5.295c0.705,1.743,1.431,4.525,1.431,6.444c0,10.379-11.114,18.793-24.824,18.793
					c-2.048,0-4.036-0.191-5.939-0.546c-0.001,0.001-0.002,0.002-0.003,0.003c-8.596-1.428-20.402-4.108-26.504-8.535
					c0,0-1.087,14.746,0.08,19.308c0.479,1.872,1.153,4.56,1.782,7.084c-2.085,0.9-4.044,2.059-6.021,3.191
					c-4.783-7.76-18.238-30.117-20.586-39.767C275.835,314.645,279.734,311.358,285.065,311.144z"/>
				<path id="XMLID_100_" style="fill:#FFFFFF;" d="M367.019,324.308c0,0-1.112-5.627-13.253-3.304
					c-12.141,2.324-26.409-0.085-32.336-5.246c0,0-3.742-16.186,6.799-28.523c2.343-2.743,3.394-6.247,2.877-9.683l-0.193-1.282
					c-0.629-4.184,0.876-8.441,4.068-11.502l7.629-7.316C342.608,257.453,384.398,287.919,367.019,324.308z"/>
				<g id="XMLID_84_">
					<g id="XMLID_97_">
						<line id="XMLID_99_" style="fill:#FFFFFF;" x1="269.89" y1="272.262" x2="283.189" y2="308.188"/>
						<path id="XMLID_98_" style="fill:#DADADA;" d="M283.087,308.917c0.117,0.016,0.239,0.005,0.358-0.039
							c0.382-0.141,0.576-0.565,0.435-0.947l-13.299-35.925c-0.143-0.381-0.566-0.578-0.947-0.435
							c-0.382,0.141-0.576,0.565-0.435,0.947l13.299,35.925C282.596,308.707,282.828,308.88,283.087,308.917z"/>
					</g>
					<g id="XMLID_95_">
						<path id="XMLID_96_" style="fill:#B2B2B2;" d="M317.324,313.692l-34.495-4.827c-0.358-0.05-0.691,0.202-0.741,0.559
							l-0.086,0.613c-0.05,0.357,0.202,0.691,0.559,0.741l34.496,4.827c0.357,0.05,0.691-0.202,0.741-0.559l0.086-0.613
							C317.933,314.076,317.681,313.742,317.324,313.692z"/>
					</g>
					<g id="XMLID_93_">
						
							<rect id="XMLID_94_" x="283.853" y="309.757" transform="matrix(-0.9904 -0.1386 0.1386 -0.9904 524.6404 656.8687)" style="fill:#706F6F;" width="2.667" height="0.828"/>
					</g>
					<g id="XMLID_91_">
						
							<rect id="XMLID_92_" x="287.679" y="310.292" transform="matrix(-0.9904 -0.1386 0.1386 -0.9904 532.1798 658.4644)" style="fill:#706F6F;" width="2.667" height="0.828"/>
					</g>
					<g id="XMLID_89_">
						
							<rect id="XMLID_90_" x="310.176" y="313.44" transform="matrix(-0.9904 -0.1385 0.1385 -0.9904 576.5344 667.8373)" style="fill:#706F6F;" width="2.667" height="0.828"/>
					</g>
					<g id="XMLID_87_">
						<path id="XMLID_88_" style="fill:#706F6F;" d="M316.246,314.517c-0.032,0.226,0.126,0.435,0.352,0.467
							c0.226,0.032,0.436-0.126,0.467-0.353c0.032-0.226-0.126-0.435-0.353-0.467C316.487,314.132,316.278,314.29,316.246,314.517z"
							/>
					</g>
					<g id="XMLID_85_">
						<path id="XMLID_86_" style="fill:#706F6F;" d="M314.151,314.223c-0.032,0.226,0.126,0.436,0.353,0.467
							c0.226,0.032,0.435-0.126,0.467-0.353s-0.126-0.436-0.353-0.467C314.392,313.839,314.183,313.997,314.151,314.223z"/>
					</g>
				</g>
				<g id="XMLID_80_">
					<path id="XMLID_83_" style="fill:#B17F4A;" d="M312.888,313.072l-17.407-2.391c-0.026-0.729,0.46-1.378,1.167-1.559
						l7.965-2.041c0.313-0.08,0.644-0.061,0.945,0.056l4.607,1.78l0.259,0.83C309.722,310.547,312.981,311.999,312.888,313.072z"/>
					<polygon id="XMLID_82_" style="fill:#B17F4A;" points="354.304,275.324 354.304,286.174 340.084,283.967 339.823,276.468 					
						"/>
					<path id="XMLID_81_" style="fill:#B17F4A;" d="M312.598,312.97l-3.109-3.49l34.031-28.378l0.009,0.011
						c2.721-2.233,6.741-1.945,9.104,0.707c2.424,2.721,2.183,6.892-0.538,9.315c-0.159,0.142-0.324,0.272-0.492,0.396l0,0
						l-0.343,0.228c-0.244,0.156-0.493,0.299-0.75,0.42l-37.316,20.891C312.996,313.18,312.748,313.139,312.598,312.97z"/>
				</g>
				<path id="XMLID_79_" style="fill:#B17F4A;" d="M338.396,231.289l7.427,28.76l-10.414,4.735l-1.315-2.421l-9.038-1.914
					c-3.545-0.751-6.265-3.603-6.845-7.181l-3.003-18.505L338.396,231.289z"/>
				<path id="XMLID_76_" style="fill:#FFFFFF;" d="M339.43,282.626h16.863v-6.173c0-4.657-3.775-8.431-8.431-8.431l0,0
					c-4.656,0-8.431,3.775-8.431,8.431V282.626z"/>
				<path id="XMLID_71_" style="fill:#1D1D1B;" d="M324.45,241.029c0.223,1.029,0.923,1.751,1.563,1.612
					c0.64-0.139,0.977-1.086,0.754-2.115c-0.224-1.029-0.923-1.751-1.563-1.612C324.564,239.053,324.227,240,324.45,241.029z"/>
				<path id="XMLID_125_" style="fill:#1D1D1B;" d="M316.814,242.086c0.223,1.029,0.923,1.751,1.563,1.612
					c0.64-0.139,0.977-1.086,0.754-2.115s-0.923-1.751-1.563-1.612C316.928,240.109,316.591,241.056,316.814,242.086z"/>
				<path id="XMLID_69_" style="fill:none;stroke:#1D1D1B;stroke-miterlimit:10;" d="M313.109,240.777
					c0,3.114,1.821,5.638,4.067,5.638c2.246,0,4.068-2.524,4.068-5.638c0-3.114-1.821-5.638-4.068-5.638
					C314.93,235.139,313.109,237.664,313.109,240.777z"/>
				<path id="XMLID_126_" style="fill:none;stroke:#1D1D1B;stroke-miterlimit:10;" d="M322.857,239.571
					c0,3.114,1.821,5.638,4.067,5.638c2.246,0,4.068-2.524,4.068-5.638c0-3.114-1.821-5.638-4.068-5.638
					C324.679,233.933,322.857,236.458,322.857,239.571z"/>
				<polygon id="XMLID_68_" style="fill:#936037;" points="322.118,238.958 317.176,249.735 323.756,249.839 				"/>
				<g id="XMLID_58_">
					<g id="XMLID_64_">
						<path id="XMLID_65_" style="fill:#FFFFFF;" d="M323.383,252.141c0,0-1.125-0.59-2.065-0.555
							c-0.94,0.035-1.838,0.415-1.974,1.606c-0.136,1.19,1.064,2.015,2.507,2.674c0.851,0.388,3.688,0.745,5.181-0.06
							c1.493-0.805,2.266-1.426,2.555-2.474c0.289-1.047-0.578-2.06-1.406-2.323c-0.828-0.262-1.651,0.176-2.029,0.506
							C325.775,251.847,324.853,252.648,323.383,252.141z"/>
					</g>
				</g>
				
					<line id="XMLID_127_" style="fill:none;stroke:#1D1D1B;stroke-miterlimit:10;" x1="320.784" y1="238.177" x2="322.857" y2="238.177"/>
				
					<line id="XMLID_128_" style="fill:none;stroke:#1D1D1B;stroke-miterlimit:10;" x1="340.633" y1="239.953" x2="330.992" y2="239.953"/>
			</g>
		</g>
		<g id="XMLID_63_">
			<path id="XMLID_134_" style="fill:#FFFFFF;" d="M283.575,254.051l-74.623-0.116c-1.994-0.003-3.622-1.637-3.619-3.631
				l0.094-60.442c0.003-1.994,1.637-3.622,3.631-3.619l74.623,0.116c1.994,0.003,3.623,1.637,3.619,3.631l-0.094,60.441
				C287.202,252.425,285.569,254.054,283.575,254.051z"/>
			
				<rect id="XMLID_132_" x="211.571" y="195.805" transform="matrix(1 0.0016 -0.0016 1 0.3098 -0.3817)" style="fill:#E6332A;" width="67.204" height="5.761"/>
			
				<rect id="XMLID_131_" x="211.554" y="206.559" transform="matrix(1 0.0016 -0.0016 1 0.3269 -0.382)" style="fill:#DADADA;" width="67.204" height="5.761"/>
			
				<rect id="XMLID_130_" x="211.537" y="217.282" transform="matrix(1 0.0016 -0.0016 1 0.3442 -0.3525)" style="fill:#DADADA;" width="28.485" height="5.761"/>
			
				<rect id="XMLID_129_" x="211.52" y="228.066" transform="matrix(1 0.0016 -0.0016 1 0.3604 -0.382)" style="fill:#E6332A;" width="67.204" height="5.761"/>
			
				<rect id="XMLID_124_" x="211.504" y="238.82" transform="matrix(1 0.0016 -0.0016 1 0.3772 -0.3819)" style="fill:#DADADA;" width="67.204" height="5.761"/>
		</g>
		<g id="XMLID_135_">
			<path id="XMLID_144_" style="fill:#FFFFFF;" d="M283.575,177.608l-74.623-0.116c-1.994-0.003-3.622-1.637-3.619-3.631
				l0.094-60.442c0.003-1.994,1.637-3.623,3.631-3.619l74.623,0.116c1.994,0.003,3.623,1.637,3.619,3.631l-0.094,60.442
				C287.202,175.983,285.569,177.611,283.575,177.608z"/>
			
				<rect id="XMLID_140_" x="211.571" y="119.362" transform="matrix(1 0.0016 -0.0016 1 0.1907 -0.3818)" style="fill:#F9B233;" width="67.204" height="5.761"/>
			
				<rect id="XMLID_139_" x="211.554" y="130.116" transform="matrix(1 0.0016 -0.0016 1 0.2077 -0.3821)" style="fill:#DADADA;" width="67.204" height="5.761"/>
			
				<rect id="XMLID_138_" x="211.537" y="140.84" transform="matrix(1 0.0016 -0.0016 1 0.2243 -0.3518)" style="fill:#DADADA;" width="28.485" height="5.761"/>
			
				<rect id="XMLID_137_" x="211.52" y="151.624" transform="matrix(1 0.0016 -0.0016 1 0.2412 -0.3821)" style="fill:#DADADA;" width="67.204" height="5.761"/>
			
				<rect id="XMLID_136_" x="211.504" y="162.378" transform="matrix(1 0.0016 -0.0016 1 0.258 -0.382)" style="fill:#DADADA;" width="67.204" height="5.761"/>
		</g>
		<g id="XMLID_151_">
			<path id="XMLID_148_" style="fill:#292B51;" d="M91.594,94.047h314.743v-6.625c0,0,0.259-5.413-3.481-8.654
				c-3.74-3.241-7.076-3.223-7.847-3.237c-0.771-0.014-291.509-0.014-291.509-0.014s-4.227-0.391-8.367,3.437
				c-4.199,3.883-3.539,9.908-3.539,9.908V94.047z"/>
			<path id="XMLID_147_" style="fill:#E6332A;" d="M112.717,84.777c0,1.75-1.419,3.168-3.169,3.168c-1.75,0-3.169-1.418-3.169-3.168
				s1.419-3.169,3.169-3.169C111.299,81.608,112.717,83.027,112.717,84.777z"/>
			<circle id="XMLID_146_" style="fill:#74C8D6;" cx="127.696" cy="84.777" r="3.168"/>
			<circle id="XMLID_145_" style="fill:#FADD74;" cx="145.843" cy="84.777" r="3.168"/>
			<path id="XMLID_142_" style="fill:#FFFFFF;" d="M367.641,89.919H165.623c-2.757,0-4.993-2.235-4.993-4.993l0,0
				c0-2.757,2.235-4.993,4.993-4.993h202.019c2.758,0,4.993,2.235,4.993,4.993l0,0C372.634,87.683,370.399,89.919,367.641,89.919z"
				/>
		</g>
		<path id="XMLID_150_" style="fill:#FFFFFF;" d="M207.446,292.991c0,2.286-1.854,4.14-4.14,4.14c-2.286,0-4.14-1.854-4.14-4.14
			c0-2.286,1.854-4.14,4.14-4.14C205.592,288.851,207.446,290.704,207.446,292.991z"/>
		
			<ellipse id="XMLID_152_" transform="matrix(0.2305 -0.9731 0.9731 0.2305 -106.9256 409.3116)" style="fill:#FFFFFF;" cx="205.333" cy="272.262" rx="7.479" ry="7.479"/>
	</g>
	<g id="XMLID_141_" style="opacity:0.38;">
		<path id="XMLID_155_" style="fill:none;stroke:#36A9E1;stroke-width:2;stroke-linecap:round;stroke-miterlimit:10;" d="
			M434,64.517c0,2.977-2.413,5.39-5.39,5.39c-2.977,0-5.39-2.413-5.39-5.39c0-2.977,2.413-5.39,5.39-5.39
			C431.587,59.127,434,61.54,434,64.517z"/>
		<path id="XMLID_443_" style="fill:none;stroke:#36A9E1;stroke-width:2;stroke-linecap:round;stroke-miterlimit:10;" d="
			M69.39,168.678c0,2.977-2.413,5.39-5.39,5.39c-2.977,0-5.39-2.413-5.39-5.39c0-2.977,2.413-5.39,5.39-5.39
			C66.977,163.288,69.39,165.701,69.39,168.678z"/>
		<path id="XMLID_360_" style="fill:none;stroke:#36A9E1;stroke-width:2;stroke-linecap:round;stroke-miterlimit:10;" d="
			M29.706,282.626c0,2.977-2.413,5.39-5.39,5.39c-2.977,0-5.39-2.413-5.39-5.39c0-2.977,2.413-5.39,5.39-5.39
			C27.293,277.236,29.706,279.65,29.706,282.626z"/>
		<g id="XMLID_143_">
			
				<line id="XMLID_361_" style="fill:none;stroke:#36A9E1;stroke-width:2;stroke-linecap:round;stroke-miterlimit:10;" x1="249.363" y1="12.669" x2="249.363" y2="21.503"/>
			
				<line id="XMLID_362_" style="fill:none;stroke:#36A9E1;stroke-width:2;stroke-linecap:round;stroke-miterlimit:10;" x1="244.947" y1="17.086" x2="253.78" y2="17.086"/>
		</g>
		<g id="XMLID_440_">
			
				<line id="XMLID_442_" style="fill:none;stroke:#36A9E1;stroke-width:2;stroke-linecap:round;stroke-miterlimit:10;" x1="468.316" y1="205.269" x2="468.316" y2="214.102"/>
			
				<line id="XMLID_441_" style="fill:none;stroke:#36A9E1;stroke-width:2;stroke-linecap:round;stroke-miterlimit:10;" x1="463.9" y1="209.686" x2="472.733" y2="209.686"/>
		</g>
		<g id="XMLID_431_">
			
				<line id="XMLID_436_" style="fill:none;stroke:#36A9E1;stroke-width:2;stroke-linecap:round;stroke-miterlimit:10;" x1="434" y1="465.583" x2="434" y2="474.417"/>
			
				<line id="XMLID_435_" style="fill:none;stroke:#36A9E1;stroke-width:2;stroke-linecap:round;stroke-miterlimit:10;" x1="429.583" y1="470" x2="438.417" y2="470"/>
		</g>
		<g id="XMLID_437_">
			
				<line id="XMLID_439_" style="fill:none;stroke:#36A9E1;stroke-width:2;stroke-linecap:round;stroke-miterlimit:10;" x1="43.497" y1="21.503" x2="43.497" y2="30.336"/>
			
				<line id="XMLID_438_" style="fill:none;stroke:#36A9E1;stroke-width:2;stroke-linecap:round;stroke-miterlimit:10;" x1="39.08" y1="25.919" x2="47.914" y2="25.919"/>
		</g>
	</g>
</g>
<g id="DESIGNED_BY_FREEPIK">
	<g id="XMLID_11896_">
		<g id="XMLID_11939_">
			<path id="XMLID_11968_" style="fill:#FFFFFF;" d="M186.001,473.563v-0.147c-0.2,0.229-0.397,0.415-0.592,0.558
				c-0.194,0.144-0.405,0.253-0.633,0.327c-0.227,0.076-0.475,0.112-0.744,0.112c-0.357,0-0.686-0.075-0.99-0.226
				c-0.303-0.151-0.566-0.367-0.787-0.646c-0.222-0.28-0.39-0.608-0.504-0.986c-0.114-0.378-0.172-0.787-0.172-1.226
				c0-0.93,0.227-1.656,0.682-2.176c0.454-0.519,1.052-0.779,1.793-0.779c0.429,0,0.79,0.074,1.085,0.22
				c0.294,0.147,0.581,0.374,0.861,0.679v-2.197c0-0.305,0.061-0.536,0.183-0.692c0.121-0.156,0.295-0.234,0.52-0.234
				c0.225,0,0.398,0.072,0.52,0.215c0.122,0.144,0.183,0.355,0.183,0.635v6.563c0,0.284-0.065,0.496-0.196,0.638
				c-0.131,0.141-0.299,0.212-0.507,0.212c-0.203,0-0.372-0.073-0.505-0.22C186.068,474.045,186.001,473.835,186.001,473.563z
				 M183.074,471.377c0,0.404,0.063,0.747,0.188,1.03c0.126,0.284,0.297,0.497,0.515,0.64c0.218,0.144,0.456,0.216,0.714,0.216
				c0.262,0,0.501-0.068,0.717-0.205c0.216-0.136,0.389-0.345,0.518-0.626c0.129-0.282,0.193-0.634,0.193-1.055
				c0-0.396-0.064-0.737-0.193-1.023c-0.129-0.285-0.303-0.503-0.523-0.654c-0.22-0.15-0.461-0.225-0.722-0.225
				c-0.272,0-0.516,0.077-0.73,0.232c-0.214,0.154-0.381,0.376-0.499,0.665C183.133,470.66,183.074,470.995,183.074,471.377z"/>
			<path id="XMLID_11965_" style="fill:#FFFFFF;" d="M192.564,471.753h-2.911c0.004,0.338,0.072,0.636,0.205,0.894
				c0.132,0.258,0.309,0.453,0.529,0.583c0.22,0.131,0.463,0.196,0.728,0.196c0.178,0,0.34-0.02,0.488-0.062
				c0.147-0.043,0.29-0.107,0.428-0.197c0.138-0.089,0.265-0.184,0.381-0.286c0.116-0.102,0.266-0.241,0.452-0.415
				c0.076-0.065,0.186-0.098,0.328-0.098c0.152,0,0.276,0.043,0.37,0.126c0.094,0.084,0.142,0.201,0.142,0.354
				c0,0.135-0.053,0.291-0.158,0.471c-0.106,0.18-0.265,0.353-0.477,0.518c-0.213,0.165-0.479,0.302-0.802,0.411
				c-0.321,0.109-0.691,0.164-1.109,0.164c-0.955,0-1.699-0.273-2.229-0.818c-0.531-0.545-0.796-1.285-0.796-2.218
				c0-0.44,0.065-0.848,0.196-1.224c0.131-0.377,0.322-0.699,0.572-0.968c0.251-0.269,0.56-0.475,0.927-0.619
				c0.367-0.143,0.774-0.215,1.221-0.215c0.581,0,1.08,0.122,1.496,0.368c0.417,0.245,0.729,0.562,0.935,0.951
				c0.207,0.389,0.311,0.786,0.311,1.188c0,0.375-0.107,0.617-0.321,0.729C193.255,471.697,192.953,471.753,192.564,471.753z
				 M189.653,470.908h2.699c-0.036-0.509-0.174-0.89-0.412-1.142c-0.238-0.253-0.551-0.379-0.94-0.379
				c-0.371,0-0.675,0.128-0.913,0.384C189.848,470.027,189.704,470.407,189.653,470.908z"/>
			<path id="XMLID_11962_" style="fill:#FFFFFF;" d="M199.345,472.466c0,0.411-0.1,0.763-0.3,1.055
				c-0.2,0.293-0.495,0.514-0.886,0.665c-0.39,0.151-0.866,0.226-1.425,0.226c-0.534,0-0.992-0.082-1.374-0.245
				c-0.381-0.163-0.663-0.368-0.845-0.613c-0.182-0.246-0.273-0.492-0.273-0.739c0-0.164,0.058-0.303,0.175-0.419
				c0.116-0.116,0.263-0.174,0.442-0.174c0.156,0,0.275,0.038,0.359,0.114c0.084,0.076,0.164,0.184,0.24,0.321
				c0.153,0.266,0.336,0.463,0.548,0.595c0.213,0.131,0.502,0.196,0.87,0.196c0.298,0,0.542-0.067,0.733-0.199
				c0.19-0.133,0.286-0.285,0.286-0.456c0-0.262-0.099-0.452-0.297-0.572c-0.198-0.12-0.524-0.235-0.979-0.344
				c-0.512-0.127-0.929-0.261-1.251-0.401c-0.322-0.139-0.579-0.324-0.771-0.553c-0.193-0.229-0.289-0.511-0.289-0.845
				c0-0.298,0.089-0.58,0.267-0.845c0.178-0.265,0.441-0.476,0.788-0.634c0.346-0.159,0.765-0.238,1.256-0.238
				c0.385,0,0.732,0.04,1.038,0.121c0.308,0.079,0.564,0.187,0.769,0.322c0.205,0.134,0.361,0.283,0.469,0.446
				c0.107,0.164,0.161,0.323,0.161,0.48c0,0.17-0.057,0.31-0.171,0.42c-0.114,0.108-0.277,0.164-0.488,0.164
				c-0.153,0-0.282-0.044-0.39-0.132c-0.107-0.087-0.23-0.217-0.368-0.392c-0.113-0.145-0.245-0.262-0.398-0.349
				c-0.153-0.087-0.36-0.13-0.622-0.13c-0.269,0-0.492,0.057-0.67,0.172c-0.178,0.114-0.267,0.256-0.267,0.427
				c0,0.157,0.065,0.285,0.196,0.384c0.131,0.1,0.307,0.183,0.529,0.248c0.222,0.065,0.526,0.145,0.916,0.239
				c0.461,0.113,0.838,0.248,1.131,0.404c0.292,0.156,0.514,0.341,0.666,0.554C199.27,471.952,199.345,472.194,199.345,472.466z"/>
			<path id="XMLID_11959_" style="fill:#FFFFFF;" d="M200.865,467.67c-0.207,0-0.384-0.064-0.531-0.191
				c-0.147-0.127-0.221-0.307-0.221-0.54c0-0.211,0.075-0.384,0.226-0.521c0.151-0.137,0.326-0.204,0.526-0.204
				c0.193,0,0.363,0.062,0.512,0.185c0.149,0.124,0.224,0.303,0.224,0.54c0,0.229-0.073,0.408-0.219,0.537
				C201.237,467.605,201.065,467.67,200.865,467.67z M201.601,469.207v4.301c0,0.298-0.071,0.524-0.213,0.676
				c-0.142,0.152-0.321,0.229-0.54,0.229c-0.218,0-0.395-0.078-0.532-0.234c-0.137-0.156-0.204-0.38-0.204-0.671v-4.258
				c0-0.294,0.068-0.516,0.204-0.665c0.136-0.149,0.313-0.224,0.532-0.224c0.218,0,0.398,0.075,0.54,0.224
				C201.53,468.735,201.601,468.942,201.601,469.207z"/>
			<path id="XMLID_11955_" style="fill:#FFFFFF;" d="M208.12,469.453v4.322c0,0.494-0.053,0.92-0.159,1.276
				c-0.105,0.355-0.274,0.65-0.507,0.883c-0.233,0.232-0.537,0.405-0.913,0.517c-0.376,0.113-0.844,0.169-1.404,0.169
				c-0.512,0-0.97-0.072-1.374-0.215c-0.403-0.144-0.714-0.329-0.932-0.556c-0.218-0.227-0.327-0.461-0.327-0.701
				c0-0.182,0.062-0.33,0.186-0.444c0.123-0.115,0.273-0.172,0.447-0.172c0.218,0,0.409,0.096,0.573,0.289
				c0.08,0.098,0.162,0.198,0.248,0.298c0.085,0.1,0.18,0.185,0.284,0.257c0.104,0.07,0.228,0.123,0.373,0.158
				c0.146,0.034,0.313,0.052,0.502,0.052c0.385,0,0.684-0.053,0.897-0.161c0.213-0.107,0.362-0.257,0.447-0.45
				c0.085-0.192,0.135-0.398,0.15-0.618s0.025-0.573,0.033-1.061c-0.229,0.321-0.493,0.564-0.793,0.731
				c-0.3,0.167-0.657,0.251-1.071,0.251c-0.498,0-0.933-0.127-1.306-0.382c-0.372-0.255-0.659-0.61-0.858-1.068
				c-0.2-0.459-0.3-0.987-0.3-1.586c0-0.447,0.06-0.851,0.182-1.21c0.122-0.36,0.296-0.664,0.521-0.911
				c0.225-0.247,0.485-0.433,0.779-0.559c0.294-0.125,0.618-0.188,0.971-0.188c0.421,0,0.787,0.081,1.096,0.242
				c0.309,0.163,0.596,0.416,0.861,0.761v-0.202c0-0.258,0.063-0.457,0.191-0.6c0.128-0.141,0.291-0.212,0.491-0.212
				c0.287,0,0.478,0.094,0.572,0.281C208.073,468.83,208.12,469.1,208.12,469.453z M203.808,471.339
				c0,0.603,0.131,1.059,0.395,1.368c0.263,0.309,0.604,0.464,1.022,0.464c0.247,0,0.48-0.067,0.7-0.199
				c0.22-0.133,0.399-0.333,0.537-0.6c0.138-0.267,0.207-0.591,0.207-0.973c0-0.607-0.133-1.079-0.401-1.417
				c-0.267-0.338-0.619-0.507-1.055-0.507c-0.425,0-0.766,0.162-1.022,0.485C203.936,470.283,203.808,470.743,203.808,471.339z"/>
			<path id="XMLID_11953_" style="fill:#FFFFFF;" d="M210.485,469.185v0.18c0.261-0.345,0.548-0.599,0.858-0.761
				c0.311-0.161,0.668-0.243,1.071-0.243c0.393,0,0.743,0.086,1.052,0.257c0.309,0.171,0.54,0.412,0.692,0.724
				c0.099,0.182,0.162,0.379,0.191,0.589c0.029,0.211,0.044,0.48,0.044,0.807v2.769c0,0.298-0.068,0.524-0.205,0.676
				c-0.136,0.152-0.313,0.229-0.531,0.229c-0.222,0-0.402-0.078-0.54-0.234c-0.138-0.156-0.207-0.38-0.207-0.671v-2.48
				c0-0.49-0.069-0.866-0.205-1.125c-0.137-0.259-0.408-0.39-0.815-0.39c-0.265,0-0.507,0.079-0.725,0.237
				c-0.218,0.159-0.378,0.376-0.48,0.652c-0.073,0.222-0.109,0.636-0.109,1.243v1.864c0,0.301-0.07,0.528-0.21,0.679
				c-0.14,0.151-0.321,0.226-0.542,0.226c-0.215,0-0.391-0.078-0.529-0.234c-0.138-0.156-0.207-0.38-0.207-0.671v-4.301
				c0-0.284,0.062-0.496,0.185-0.636c0.124-0.14,0.293-0.21,0.507-0.21c0.131,0,0.249,0.031,0.355,0.093
				c0.105,0.062,0.19,0.155,0.253,0.278C210.454,468.856,210.485,469.008,210.485,469.185z"/>
			<path id="XMLID_11949_" style="fill:#FFFFFF;" d="M219.539,471.753h-2.911c0.004,0.338,0.072,0.636,0.205,0.894
				c0.133,0.258,0.309,0.453,0.529,0.583c0.219,0.131,0.462,0.196,0.727,0.196c0.178,0,0.341-0.02,0.488-0.062
				c0.146-0.043,0.289-0.107,0.428-0.197c0.138-0.089,0.265-0.184,0.382-0.286c0.116-0.102,0.266-0.241,0.452-0.415
				c0.076-0.065,0.185-0.098,0.327-0.098c0.153,0,0.276,0.043,0.371,0.126c0.094,0.084,0.142,0.201,0.142,0.354
				c0,0.135-0.052,0.291-0.158,0.471c-0.106,0.18-0.265,0.353-0.477,0.518c-0.213,0.165-0.479,0.302-0.801,0.411
				c-0.322,0.109-0.692,0.164-1.109,0.164c-0.956,0-1.699-0.273-2.23-0.818c-0.53-0.545-0.796-1.285-0.796-2.218
				c0-0.44,0.065-0.848,0.196-1.224c0.131-0.377,0.322-0.699,0.573-0.968c0.251-0.269,0.56-0.475,0.926-0.619
				c0.367-0.143,0.774-0.215,1.221-0.215c0.581,0,1.079,0.122,1.496,0.368c0.417,0.245,0.728,0.562,0.936,0.951
				c0.207,0.389,0.311,0.786,0.311,1.188c0,0.375-0.107,0.617-0.322,0.729C220.23,471.697,219.928,471.753,219.539,471.753z
				 M216.628,470.908h2.698c-0.036-0.509-0.174-0.89-0.411-1.142c-0.238-0.253-0.551-0.379-0.94-0.379
				c-0.371,0-0.676,0.128-0.914,0.384C216.823,470.027,216.679,470.407,216.628,470.908z"/>
			<path id="XMLID_11946_" style="fill:#FFFFFF;" d="M225.605,473.563v-0.147c-0.2,0.229-0.397,0.415-0.591,0.558
				c-0.195,0.144-0.405,0.253-0.632,0.327c-0.227,0.076-0.475,0.112-0.744,0.112c-0.357,0-0.686-0.075-0.99-0.226
				c-0.303-0.151-0.566-0.367-0.788-0.646c-0.222-0.28-0.39-0.608-0.504-0.986c-0.115-0.378-0.172-0.787-0.172-1.226
				c0-0.93,0.227-1.656,0.681-2.176c0.454-0.519,1.052-0.779,1.794-0.779c0.429,0,0.791,0.074,1.085,0.22
				c0.294,0.147,0.582,0.374,0.861,0.679v-2.197c0-0.305,0.061-0.536,0.183-0.692c0.121-0.156,0.295-0.234,0.521-0.234
				c0.225,0,0.398,0.072,0.52,0.215c0.122,0.144,0.183,0.355,0.183,0.635v6.563c0,0.284-0.065,0.496-0.196,0.638
				c-0.131,0.141-0.3,0.212-0.507,0.212c-0.204,0-0.372-0.073-0.504-0.22C225.672,474.045,225.605,473.835,225.605,473.563z
				 M222.678,471.377c0,0.404,0.062,0.747,0.188,1.03c0.125,0.284,0.297,0.497,0.516,0.64c0.218,0.144,0.456,0.216,0.713,0.216
				c0.262,0,0.501-0.068,0.717-0.205c0.216-0.136,0.389-0.345,0.518-0.626c0.129-0.282,0.194-0.634,0.194-1.055
				c0-0.396-0.064-0.737-0.194-1.023c-0.129-0.285-0.303-0.503-0.523-0.654c-0.22-0.15-0.461-0.225-0.722-0.225
				c-0.272,0-0.516,0.077-0.73,0.232c-0.214,0.154-0.38,0.376-0.499,0.665C222.737,470.66,222.678,470.995,222.678,471.377z"/>
			<path id="XMLID_11942_" style="fill:#FFFFFF;" d="M231.688,466.999v2.273c0.28-0.29,0.565-0.513,0.856-0.668
				c0.291-0.154,0.651-0.231,1.079-0.231c0.494,0,0.927,0.117,1.3,0.351c0.372,0.236,0.661,0.575,0.867,1.02
				c0.205,0.444,0.308,0.973,0.308,1.584c0,0.451-0.057,0.863-0.172,1.24c-0.115,0.376-0.281,0.702-0.499,0.978
				c-0.218,0.276-0.482,0.49-0.793,0.641c-0.311,0.151-0.654,0.226-1.028,0.226c-0.229,0-0.445-0.027-0.646-0.082
				c-0.202-0.054-0.374-0.125-0.515-0.215c-0.141-0.089-0.262-0.181-0.362-0.275c-0.1-0.094-0.232-0.237-0.395-0.425v0.147
				c0,0.28-0.067,0.491-0.202,0.636c-0.134,0.143-0.305,0.215-0.512,0.215c-0.211,0-0.379-0.071-0.504-0.215
				c-0.126-0.144-0.188-0.356-0.188-0.636v-6.498c0-0.301,0.061-0.53,0.182-0.684c0.122-0.154,0.292-0.231,0.51-0.231
				c0.229,0,0.405,0.073,0.529,0.22C231.626,466.517,231.688,466.726,231.688,466.999z M231.759,471.421
				c0,0.592,0.135,1.047,0.406,1.365c0.271,0.318,0.626,0.478,1.066,0.478c0.374,0,0.697-0.163,0.967-0.488
				c0.271-0.326,0.406-0.791,0.406-1.398c0-0.392-0.056-0.731-0.169-1.014c-0.113-0.284-0.272-0.503-0.479-0.657
				c-0.207-0.154-0.449-0.232-0.725-0.232c-0.283,0-0.536,0.077-0.758,0.232c-0.222,0.154-0.396,0.378-0.523,0.67
				C231.823,470.668,231.759,471.017,231.759,471.421z"/>
			<path id="XMLID_11940_" style="fill:#FFFFFF;" d="M238.028,474.599l0.136-0.333l-1.832-4.612
				c-0.112-0.265-0.169-0.458-0.169-0.578c0-0.127,0.033-0.245,0.098-0.354c0.066-0.109,0.155-0.197,0.27-0.262
				c0.115-0.066,0.234-0.099,0.357-0.099c0.214,0,0.376,0.068,0.485,0.205c0.109,0.136,0.205,0.331,0.289,0.586l1.259,3.663
				l1.194-3.407c0.094-0.275,0.18-0.492,0.256-0.648c0.076-0.156,0.157-0.262,0.242-0.316c0.085-0.055,0.206-0.082,0.363-0.082
				c0.113,0,0.221,0.03,0.325,0.09c0.103,0.06,0.183,0.141,0.24,0.243c0.056,0.101,0.085,0.209,0.085,0.321
				c-0.015,0.069-0.038,0.167-0.071,0.295c-0.033,0.127-0.072,0.257-0.12,0.387l-1.941,5.081c-0.168,0.447-0.331,0.797-0.491,1.051
				c-0.16,0.254-0.371,0.451-0.635,0.586c-0.264,0.137-0.619,0.205-1.066,0.205c-0.436,0-0.763-0.047-0.981-0.141
				c-0.219-0.095-0.327-0.268-0.327-0.518c0-0.17,0.051-0.303,0.156-0.395c0.103-0.092,0.257-0.14,0.46-0.14
				c0.08,0,0.159,0.011,0.235,0.034c0.094,0.021,0.176,0.033,0.245,0.033c0.171,0,0.305-0.025,0.404-0.077
				c0.098-0.051,0.186-0.138,0.264-0.265C237.836,475.027,237.926,474.842,238.028,474.599z"/>
		</g>
		<g id="XMLID_11913_">
			<path id="XMLID_11938_" style="fill:#FFFFFF;" d="M259.586,468.491h0.355v-0.447c0-0.467,0.057-0.836,0.176-1.112
				c0.117-0.275,0.319-0.474,0.601-0.6c0.281-0.124,0.668-0.187,1.157-0.187c0.872,0,1.304,0.211,1.304,0.639
				c0,0.137-0.045,0.255-0.138,0.353c-0.089,0.097-0.197,0.147-0.32,0.147c-0.057,0-0.16-0.011-0.303-0.034
				c-0.136-0.019-0.259-0.032-0.358-0.032c-0.268,0-0.44,0.081-0.52,0.238c-0.073,0.158-0.112,0.384-0.112,0.68v0.354h0.363
				c0.569,0,0.85,0.17,0.85,0.514c0,0.24-0.073,0.396-0.225,0.462c-0.15,0.066-0.358,0.098-0.625,0.098h-0.363v3.944
				c0,0.293-0.069,0.517-0.212,0.67c-0.138,0.156-0.318,0.233-0.541,0.233c-0.211,0-0.385-0.077-0.527-0.233
				c-0.14-0.154-0.209-0.377-0.209-0.67v-3.944h-0.41c-0.223,0-0.392-0.048-0.513-0.15c-0.12-0.098-0.181-0.229-0.181-0.389
				C258.838,468.667,259.088,468.491,259.586,468.491"/>
			<path id="XMLID_11937_" style="fill:#FFFFFF;" d="M264.459,472.264v1.244c0,0.301-0.076,0.527-0.215,0.677
				c-0.142,0.152-0.321,0.227-0.538,0.227c-0.219,0-0.395-0.075-0.532-0.23c-0.136-0.151-0.207-0.377-0.207-0.674v-4.145
				c0-0.669,0.241-1.004,0.723-1.004c0.249,0,0.427,0.077,0.536,0.234c0.109,0.157,0.169,0.387,0.182,0.693
				c0.177-0.307,0.358-0.536,0.544-0.693c0.191-0.157,0.438-0.234,0.752-0.234c0.315,0,0.615,0.077,0.91,0.234
				c0.296,0.157,0.443,0.365,0.443,0.623c0,0.181-0.063,0.333-0.187,0.448c-0.126,0.12-0.261,0.179-0.405,0.179
				c-0.057,0-0.19-0.036-0.397-0.103c-0.21-0.065-0.395-0.099-0.553-0.099c-0.218,0-0.397,0.059-0.535,0.171
				c-0.139,0.118-0.247,0.285-0.324,0.509c-0.074,0.227-0.126,0.497-0.156,0.806C264.472,471.438,264.459,471.817,264.459,472.264"
				/>
			<path id="XMLID_11933_" style="fill:#FFFFFF;" d="M271.301,471.752h-2.912c0.005,0.337,0.071,0.637,0.203,0.895
				c0.135,0.256,0.31,0.451,0.531,0.583c0.221,0.131,0.461,0.195,0.728,0.195c0.178,0,0.34-0.019,0.488-0.064
				c0.146-0.04,0.29-0.106,0.428-0.196c0.139-0.087,0.264-0.183,0.381-0.287c0.116-0.1,0.268-0.239,0.453-0.413
				c0.077-0.065,0.186-0.1,0.326-0.1c0.154,0,0.276,0.043,0.373,0.127c0.095,0.085,0.14,0.201,0.14,0.354
				c0,0.135-0.051,0.292-0.154,0.47c-0.108,0.182-0.266,0.354-0.48,0.52c-0.215,0.164-0.482,0.303-0.802,0.41
				c-0.321,0.109-0.692,0.164-1.109,0.164c-0.959,0-1.701-0.271-2.231-0.816c-0.53-0.547-0.799-1.287-0.799-2.22
				c0-0.44,0.067-0.849,0.199-1.225c0.129-0.378,0.32-0.698,0.573-0.969c0.25-0.27,0.557-0.475,0.925-0.619
				c0.366-0.143,0.773-0.215,1.221-0.215c0.58,0,1.079,0.123,1.496,0.37c0.415,0.243,0.731,0.561,0.935,0.949
				c0.208,0.391,0.311,0.785,0.311,1.19c0,0.372-0.108,0.614-0.322,0.726C271.991,471.696,271.69,471.752,271.301,471.752
				 M268.388,470.905h2.698c-0.036-0.508-0.171-0.889-0.41-1.14c-0.24-0.254-0.55-0.379-0.942-0.379
				c-0.37,0-0.675,0.126-0.914,0.384C268.584,470.027,268.438,470.404,268.388,470.905"/>
			<path id="XMLID_11930_" style="fill:#FFFFFF;" d="M277.492,471.752h-2.912c0.003,0.337,0.072,0.637,0.204,0.895
				c0.133,0.256,0.309,0.451,0.529,0.583c0.22,0.131,0.462,0.195,0.73,0.195c0.177,0,0.34-0.019,0.485-0.064
				c0.148-0.04,0.29-0.106,0.43-0.196c0.139-0.087,0.264-0.183,0.381-0.287c0.114-0.1,0.266-0.239,0.452-0.413
				c0.077-0.065,0.187-0.1,0.326-0.1c0.154,0,0.277,0.043,0.373,0.127c0.095,0.085,0.138,0.201,0.138,0.354
				c0,0.135-0.05,0.292-0.157,0.47c-0.102,0.182-0.261,0.354-0.476,0.52c-0.212,0.164-0.482,0.303-0.801,0.41
				c-0.32,0.109-0.693,0.164-1.11,0.164c-0.957,0-1.698-0.271-2.231-0.816c-0.53-0.547-0.797-1.287-0.797-2.22
				c0-0.44,0.067-0.849,0.199-1.225c0.13-0.378,0.321-0.698,0.572-0.969c0.25-0.27,0.558-0.475,0.927-0.619
				c0.366-0.143,0.775-0.215,1.222-0.215c0.579,0,1.078,0.123,1.5,0.37c0.413,0.243,0.726,0.561,0.93,0.949
				c0.206,0.391,0.313,0.785,0.313,1.19c0,0.372-0.11,0.614-0.322,0.726C278.181,471.696,277.88,471.752,277.492,471.752
				 M274.58,470.905h2.698c-0.036-0.508-0.174-0.889-0.41-1.14c-0.242-0.254-0.552-0.379-0.943-0.379
				c-0.37,0-0.675,0.126-0.914,0.384C274.774,470.027,274.628,470.404,274.58,470.905"/>
			<path id="XMLID_11926_" style="fill:#FFFFFF;" d="M280.752,469.197v0.178c0.279-0.345,0.571-0.598,0.875-0.76
				c0.298-0.163,0.642-0.245,1.023-0.245c0.456,0,0.881,0.119,1.267,0.354c0.385,0.238,0.688,0.583,0.912,1.037
				c0.224,0.456,0.336,0.993,0.336,1.615c0,0.457-0.064,0.879-0.193,1.263c-0.128,0.383-0.308,0.704-0.533,0.964
				c-0.226,0.258-0.491,0.46-0.798,0.6c-0.311,0.138-0.638,0.208-0.992,0.208c-0.424,0-0.783-0.085-1.07-0.257
				c-0.289-0.167-0.564-0.421-0.827-0.749v2.234c0,0.652-0.239,0.981-0.714,0.981c-0.281,0-0.464-0.084-0.558-0.252
				c-0.087-0.172-0.134-0.415-0.134-0.741v-6.424c0-0.284,0.061-0.493,0.184-0.636c0.123-0.137,0.294-0.209,0.508-0.209
				c0.212,0,0.382,0.072,0.514,0.215C280.687,468.72,280.752,468.924,280.752,469.197 M283.669,471.359
				c0-0.393-0.061-0.731-0.18-1.012c-0.12-0.283-0.286-0.498-0.497-0.647c-0.211-0.151-0.449-0.228-0.707-0.228
				c-0.41,0-0.757,0.163-1.038,0.484c-0.283,0.325-0.424,0.801-0.424,1.431c0,0.589,0.14,1.052,0.422,1.381
				c0.28,0.329,0.623,0.493,1.04,0.493c0.246,0,0.477-0.072,0.687-0.214c0.213-0.145,0.382-0.36,0.507-0.647
				C283.606,472.113,283.669,471.765,283.669,471.359"/>
			<path id="XMLID_11923_" style="fill:#FFFFFF;" d="M286.663,467.666c-0.208,0-0.384-0.066-0.53-0.192
				c-0.149-0.128-0.223-0.306-0.223-0.538c0-0.211,0.075-0.385,0.228-0.522c0.15-0.135,0.325-0.204,0.525-0.204
				c0.195,0,0.365,0.061,0.513,0.183c0.149,0.126,0.224,0.307,0.224,0.543c0,0.229-0.073,0.408-0.217,0.537
				C287.037,467.601,286.865,467.666,286.663,467.666 M287.4,469.204v4.306c0,0.296-0.071,0.521-0.212,0.673
				c-0.143,0.155-0.322,0.23-0.54,0.23c-0.219,0-0.393-0.077-0.533-0.233c-0.134-0.159-0.204-0.382-0.204-0.669v-4.263
				c0-0.293,0.07-0.513,0.204-0.663c0.14-0.152,0.314-0.225,0.533-0.225c0.219,0,0.397,0.073,0.54,0.225
				C287.329,468.733,287.4,468.941,287.4,469.204"/>
			<path id="XMLID_11921_" style="fill:#FFFFFF;" d="M292.198,473.733l-1.311-2.161l-0.808,0.762v1.185
				c0,0.286-0.076,0.506-0.228,0.66c-0.147,0.156-0.325,0.233-0.52,0.233c-0.229,0-0.41-0.075-0.54-0.23
				c-0.13-0.151-0.197-0.377-0.197-0.674v-6.35c0-0.329,0.065-0.58,0.19-0.754c0.128-0.175,0.313-0.259,0.547-0.259
				c0.229,0,0.409,0.078,0.545,0.236c0.134,0.155,0.203,0.387,0.203,0.69v3.612l1.674-1.758c0.208-0.216,0.363-0.368,0.475-0.447
				c0.109-0.08,0.241-0.119,0.396-0.119c0.187,0,0.341,0.059,0.468,0.177c0.121,0.118,0.184,0.267,0.184,0.444
				c0,0.217-0.203,0.51-0.605,0.873l-0.79,0.725l1.526,2.401c0.111,0.18,0.194,0.312,0.243,0.405
				c0.048,0.091,0.074,0.183,0.074,0.265c0,0.237-0.066,0.422-0.195,0.56c-0.129,0.136-0.301,0.203-0.508,0.203
				c-0.182,0-0.324-0.047-0.421-0.147C292.5,474.166,292.364,473.988,292.198,473.733"/>
			<path id="XMLID_11920_" style="fill:#FFFFFF;" d="M295.432,474.412c-0.225,0-0.418-0.072-0.582-0.219
				c-0.163-0.143-0.246-0.348-0.246-0.611c0-0.221,0.079-0.413,0.235-0.571c0.158-0.16,0.349-0.241,0.578-0.241
				c0.228,0,0.422,0.08,0.587,0.237c0.16,0.158,0.242,0.351,0.242,0.575c0,0.259-0.082,0.464-0.242,0.608
				C295.84,474.34,295.65,474.412,295.432,474.412"/>
			<path id="XMLID_11919_" style="fill:#FFFFFF;" d="M302.835,472.569c0,0.184-0.055,0.383-0.167,0.594
				c-0.11,0.212-0.28,0.412-0.508,0.603c-0.227,0.191-0.512,0.346-0.858,0.461c-0.345,0.116-0.735,0.176-1.165,0.176
				c-0.922,0-1.641-0.27-2.157-0.804c-0.514-0.537-0.772-1.257-0.772-2.158c0-0.613,0.117-1.151,0.355-1.621
				c0.234-0.467,0.576-0.831,1.022-1.087c0.447-0.257,0.985-0.384,1.603-0.384c0.387,0,0.739,0.056,1.063,0.169
				c0.322,0.112,0.592,0.259,0.818,0.436c0.222,0.18,0.393,0.369,0.511,0.569c0.119,0.202,0.177,0.391,0.177,0.567
				c0,0.177-0.065,0.328-0.197,0.452c-0.135,0.123-0.296,0.186-0.481,0.186c-0.126,0-0.228-0.033-0.311-0.095
				c-0.082-0.064-0.175-0.166-0.275-0.311c-0.182-0.275-0.371-0.483-0.572-0.619c-0.197-0.139-0.448-0.208-0.754-0.208
				c-0.437,0-0.794,0.171-1.064,0.515c-0.268,0.342-0.404,0.815-0.404,1.409c0,0.28,0.036,0.539,0.105,0.773
				c0.067,0.234,0.167,0.434,0.299,0.599c0.132,0.165,0.289,0.29,0.474,0.376c0.186,0.088,0.391,0.129,0.61,0.129
				c0.299,0,0.555-0.069,0.767-0.207c0.216-0.139,0.403-0.349,0.566-0.633c0.091-0.167,0.188-0.297,0.292-0.392
				c0.105-0.094,0.235-0.143,0.388-0.143c0.182,0,0.333,0.071,0.451,0.208C302.774,472.266,302.835,472.414,302.835,472.569"/>
			<path id="XMLID_11916_" style="fill:#FFFFFF;" d="M309.258,471.387c0,0.442-0.07,0.852-0.204,1.228
				c-0.142,0.374-0.34,0.696-0.603,0.963c-0.261,0.269-0.575,0.475-0.936,0.62c-0.367,0.142-0.775,0.215-1.228,0.215
				c-0.451,0-0.857-0.073-1.217-0.22c-0.358-0.143-0.672-0.353-0.933-0.621c-0.265-0.274-0.464-0.594-0.604-0.962
				c-0.132-0.369-0.201-0.777-0.201-1.223c0-0.451,0.071-0.864,0.206-1.239c0.139-0.375,0.338-0.696,0.596-0.96
				c0.259-0.265,0.57-0.469,0.936-0.614c0.369-0.143,0.775-0.215,1.217-0.215c0.45,0,0.86,0.072,1.228,0.219
				c0.366,0.144,0.679,0.353,0.943,0.619c0.263,0.272,0.461,0.591,0.597,0.96C309.189,470.531,309.258,470.938,309.258,471.387
				 M307.764,471.387c0-0.608-0.135-1.079-0.401-1.417c-0.266-0.342-0.625-0.509-1.076-0.509c-0.292,0-0.548,0.076-0.771,0.226
				c-0.222,0.15-0.391,0.373-0.511,0.668c-0.12,0.295-0.181,0.639-0.181,1.032c0,0.39,0.059,0.728,0.178,1.018
				c0.119,0.293,0.288,0.515,0.508,0.669c0.221,0.153,0.479,0.232,0.776,0.232c0.45,0,0.81-0.17,1.076-0.512
				C307.629,472.455,307.764,471.984,307.764,471.387"/>
			<path id="XMLID_11914_" style="fill:#FFFFFF;" d="M314.935,471.496v1.978c0,0.314-0.069,0.546-0.212,0.704
				c-0.144,0.156-0.328,0.234-0.561,0.234c-0.225,0-0.41-0.078-0.546-0.234c-0.142-0.159-0.214-0.391-0.214-0.704v-2.371
				c0-0.375-0.012-0.667-0.036-0.875c-0.026-0.203-0.096-0.376-0.208-0.507c-0.113-0.135-0.292-0.202-0.534-0.202
				c-0.488,0-0.808,0.167-0.962,0.506c-0.154,0.331-0.233,0.811-0.233,1.439v2.01c0,0.309-0.07,0.543-0.207,0.702
				c-0.143,0.157-0.326,0.237-0.554,0.237c-0.227,0-0.411-0.08-0.555-0.237c-0.145-0.159-0.216-0.393-0.216-0.702v-4.258
				c0-0.281,0.064-0.494,0.192-0.638c0.132-0.147,0.302-0.219,0.511-0.219c0.204,0,0.374,0.071,0.512,0.204
				c0.136,0.137,0.203,0.325,0.203,0.565v0.141c0.26-0.307,0.536-0.535,0.829-0.678c0.297-0.149,0.621-0.221,0.983-0.221
				c0.374,0,0.695,0.075,0.963,0.224c0.27,0.15,0.49,0.376,0.666,0.675c0.252-0.303,0.522-0.53,0.809-0.678
				c0.287-0.147,0.604-0.221,0.954-0.221c0.405,0,0.758,0.082,1.053,0.24c0.293,0.16,0.512,0.39,0.659,0.686
				c0.127,0.271,0.189,0.694,0.189,1.272v2.906c0,0.314-0.07,0.546-0.211,0.704c-0.141,0.156-0.33,0.234-0.562,0.234
				c-0.227,0-0.41-0.08-0.554-0.237c-0.143-0.159-0.216-0.393-0.216-0.702v-2.503c0-0.321-0.014-0.576-0.04-0.768
				c-0.027-0.193-0.101-0.356-0.22-0.486c-0.122-0.131-0.304-0.197-0.547-0.197c-0.196,0-0.382,0.061-0.559,0.177
				c-0.176,0.114-0.314,0.273-0.414,0.466C314.992,470.414,314.935,470.859,314.935,471.496"/>
		</g>
		<g id="XMLID_11897_">
			<path id="XMLID_11912_" style="fill:#FFFFFF;" d="M245.658,471.026c-0.001-0.003-0.001-0.006-0.001-0.01
				C245.657,471.021,245.657,471.024,245.658,471.026z"/>
			<path id="XMLID_11911_" style="fill:#FFFFFF;" d="M245.733,471.502c0.001,0,0.001,0,0.002,0c-0.029-0.136-0.051-0.27-0.068-0.403
				C245.684,471.233,245.706,471.368,245.733,471.502z"/>
			<path id="XMLID_11910_" style="fill:#FFFFFF;" d="M246.226,472.883c-0.003-0.006-0.006-0.012-0.01-0.019
				C246.22,472.871,246.223,472.878,246.226,472.883z"/>
			<path id="XMLID_11909_" style="fill:#FFFFFF;" d="M246.179,472.792c-0.013-0.025-0.025-0.052-0.037-0.077
				C246.154,472.742,246.166,472.766,246.179,472.792z"/>
			<path id="XMLID_11907_" style="fill:#FFFFFF;" d="M245.872,472.034c0.073,0.23,0.161,0.452,0.262,0.665
				c-0.103-0.217-0.189-0.44-0.26-0.665C245.873,472.034,245.872,472.034,245.872,472.034z"/>
			<path id="XMLID_11906_" style="fill:#FFFFFF;" d="M251.419,465.324c0.288,0,0.5,0.023,0.743,0.064l0.069-0.438
				c0,0-0.672-0.207-1.556-0.135l-0.07-0.238c0.275-0.058,0.481-0.302,0.481-0.594c0-0.334-0.272-0.605-0.607-0.605
				c-0.335,0-0.606,0.271-0.606,0.605c0,0.292,0.206,0.536,0.48,0.594l0.077,0.266c-0.938,0.129-1.685,0.495-1.685,0.495
				l0.132,0.405c0.568-0.189,1.06-0.304,1.506-0.352C250.822,465.344,251.151,465.324,251.419,465.324z"/>
			<path id="XMLID_11905_" style="fill:#FFFFFF;" d="M246.215,467.538l0.003-0.004c0.022-0.029,0.043-0.056,0.065-0.082l-0.18-0.129
				l-0.28-0.204c-0.016,0.022-0.456,0.427-0.804,1.175c-0.015-0.023-0.032-0.047-0.051-0.068c-0.104-0.114-0.25-0.172-0.435-0.169
				c-0.002,0-0.005,0-0.008,0c-0.115,0-0.193-0.038-0.245-0.085c0.051-0.065,0.082-0.147,0.082-0.237
				c0-0.211-0.172-0.384-0.384-0.384c-0.212,0-0.384,0.173-0.384,0.384c0,0.212,0.172,0.384,0.384,0.384
				c0.033,0,0.065-0.005,0.096-0.012c0.094,0.105,0.244,0.196,0.464,0.192c0.113-0.001,0.196,0.028,0.251,0.089
				c0.064,0.069,0.085,0.17,0.092,0.245c-0.001,0.001-0.001,0.003-0.002,0.003c-0.25,0.683-0.178,1.532-0.178,1.532l0.607,0.024
				c0.012-0.309,0.057-0.851,0.213-1.28C245.821,468.08,246.199,467.56,246.215,467.538z"/>
			<path id="XMLID_11904_" style="fill:#FFFFFF;" d="M256.699,465.831c-0.211,0-0.384,0.171-0.384,0.384
				c0,0.033,0.005,0.065,0.014,0.095c-0.105,0.095-0.197,0.245-0.193,0.465c0.002,0.113-0.027,0.195-0.089,0.251
				c-0.049,0.043-0.11,0.066-0.17,0.081c-0.452-0.633-1.008-1.019-1.008-1.019l-0.436,0.467c0.329,0.299,0.665,0.674,0.992,1.142
				c0.226,0.323,0.459,0.74,0.652,1.156l0.588-0.279c0,0-0.268-0.663-0.646-1.258c0.066-0.023,0.132-0.059,0.19-0.11
				c0.115-0.104,0.171-0.251,0.168-0.435c-0.001-0.119,0.038-0.2,0.085-0.253c0.065,0.05,0.147,0.082,0.236,0.082
				c0.213,0,0.385-0.172,0.385-0.384C257.083,466.002,256.912,465.831,256.699,465.831z"/>
			<path id="XMLID_11903_" style="fill:#FFFFFF;" d="M255.174,471.112c-0.809,0.394-2.14,0.915-3.892,1.159
				c-0.688,0.095-1.354,0.13-1.968,0.13c-0.798,0-1.503-0.059-2.045-0.128c-0.618-0.078-1.1-0.173-1.396-0.24
				c0.071,0.225,0.157,0.448,0.26,0.665c0.002,0.006,0.004,0.012,0.007,0.016c0.012,0.025,0.025,0.052,0.037,0.077
				c0.012,0.025,0.025,0.05,0.037,0.073c0.004,0.007,0.007,0.013,0.01,0.019c0.174,0.327,0.383,0.628,0.62,0.889
				c0.826,0.904,1.668,1.047,1.676,1.048l0.013,0.002l0.012,0.004c0.008,0.003,0.754,0.244,1.889,0.244
				c1.117,0,2.212-0.225,3.257-0.67c0.773-0.396,1.505-0.996,1.868-1.532c0.28-0.415,0.483-0.857,0.603-1.317
				c0.064-0.244,0.114-0.636,0.085-1.047C256.021,470.657,255.661,470.875,255.174,471.112z"/>
			<path id="XMLID_11898_" style="fill:#FFFFFF;" d="M246.474,467.73c-0.024,0.034-0.374,0.531-0.652,1.293
				c-0.208,0.571-0.198,1.402-0.198,1.412v0.002c0,0.195,0.011,0.388,0.033,0.58c0,0.005,0,0.007,0.001,0.01
				c0.002,0.025,0.006,0.048,0.009,0.073c0.017,0.133,0.04,0.267,0.068,0.403c0.402,0.102,2.8,0.661,5.48,0.288
				c1.68-0.234,2.955-0.73,3.73-1.106c0.643-0.312,1.057-0.595,1.217-0.711c-0.159-0.59-0.598-1.516-1-2.093
				c-1.151-1.645-2.392-2.066-3.029-2.171c-0.243-0.04-0.438-0.063-0.714-0.063c-0.257,0-0.575,0.021-1.001,0.065
				c-0.426,0.044-0.902,0.156-1.453,0.342c-0.773,0.259-1.473,0.665-2.024,1.175l-0.019,0.017
				C246.841,467.322,246.67,467.48,246.474,467.73z M253.516,467.347c0.551,0,1,0.448,1,1.001c0,0.552-0.449,1.001-1,1.001
				c-0.552,0-1-0.449-1-1.001C252.516,467.795,252.964,467.347,253.516,467.347z M248.786,467.307c0.893,0,1.617,0.724,1.617,1.617
				c0,0.893-0.723,1.615-1.617,1.615c-0.892,0-1.616-0.723-1.616-1.615C247.17,468.031,247.894,467.307,248.786,467.307z"/>
		</g>
	</g>
</g>
</svg>
